<?xml version="1.0" standalone="no"?>
<!DOCTYPE svg PUBLIC "-//W3C//DTD SVG 20010904//EN"
 "http://www.w3.org/TR/2001/REC-SVG-20010904/DTD/svg10.dtd">
<svg version="1.0" xmlns="http://www.w3.org/2000/svg"
 width="920.000000pt" height="512.000000pt" viewBox="0 0 920.000000 512.000000"
 preserveAspectRatio="xMidYMid meet">

<g transform="translate(0.000000,512.000000) scale(0.100000,-0.100000)"
fill="#000000" stroke="none">
<path d="M3319 5110 c-81 -10 -222 -47 -271 -72 -74 -37 -115 -141 -88 -223 8
-23 98 -140 239 -309 124 -149 234 -280 243 -292 15 -19 16 -36 5 -199 l-12
-180 -194 -21 -194 -21 -280 235 c-155 129 -301 244 -326 255 -83 36 -189 -1
-230 -82 -50 -97 -89 -332 -76 -456 17 -167 62 -330 126 -456 51 -102 166
-263 253 -356 224 -237 473 -346 829 -360 l149 -6 -575 -576 c-316 -317 -588
-596 -604 -621 -92 -137 -134 -270 -134 -425 -1 -178 50 -333 154 -470 62 -82
289 -302 360 -348 135 -89 245 -121 417 -121 193 0 329 47 472 163 40 33 323
311 629 618 448 450 564 571 596 626 l41 68 475 -549 c261 -301 493 -564 516
-583 55 -48 136 -86 234 -111 106 -27 302 -21 417 12 350 100 552 366 567 746
8 193 -31 332 -124 444 -20 25 -150 142 -288 262 -961 831 -1120 970 -1120
977 0 4 176 190 392 412 l392 404 78 1 c87 0 160 28 219 81 41 36 373 447 401
494 42 73 56 135 51 233 -8 137 -22 162 -212 354 -190 193 -240 224 -364 231
-80 4 -141 -9 -216 -46 -66 -33 -511 -396 -541 -441 -38 -58 -56 -121 -58
-199 l-2 -72 -411 -398 c-226 -219 -420 -406 -432 -417 -22 -19 -22 -18 -89
40 -38 32 -69 59 -71 60 -2 1 7 53 20 115 20 100 23 142 22 344 0 225 -1 233
-31 347 -37 137 -110 296 -181 388 -27 36 -88 102 -135 147 -285 269 -661 397
-1038 353z m311 -386 c263 -50 517 -230 616 -439 55 -115 75 -210 81 -380 6
-164 -9 -298 -48 -430 -26 -87 -27 -152 -3 -202 20 -41 -26 0 1506 -1325 691
-598 870 -757 881 -787 51 -127 13 -326 -83 -434 -110 -126 -397 -174 -501
-85 -15 13 -283 320 -597 683 -1170 1355 -1428 1650 -1459 1671 -49 33 -100
37 -184 14 -183 -49 -265 -61 -429 -60 -285 0 -476 79 -639 263 -117 131 -197
275 -236 423 -31 119 -32 119 163 -44 98 -82 192 -157 210 -166 44 -23 86 -21
437 19 315 36 346 42 391 77 57 46 63 72 86 427 20 311 20 332 4 373 -9 24
-71 108 -142 193 -69 83 -139 167 -156 188 l-30 37 25 0 c14 0 62 -7 107 -16z
m2949 -328 c111 -112 114 -115 99 -138 -13 -19 -285 -357 -307 -380 -4 -4 -37
10 -75 32 -38 22 -69 40 -70 40 -4 0 -779 -799 -897 -923 l-95 -101 -25 19
c-14 11 -46 38 -72 61 l-47 41 515 499 c283 274 515 503 515 508 0 4 -16 35
-36 67 -19 33 -34 64 -32 69 6 17 382 319 398 320 9 0 67 -51 129 -114z
m-2482 -2049 c12 -12 119 -134 237 -272 158 -183 216 -257 216 -275 0 -35 -23
-118 -44 -160 -23 -45 -1147 -1173 -1202 -1206 -113 -67 -254 -70 -374 -9 -47
24 -295 269 -326 323 -58 98 -63 244 -13 351 32 69 1160 1198 1235 1236 97 49
228 55 271 12z"/>
</g>
</svg>
