<?xml version="1.0" standalone="no"?>
<!DOCTYPE svg PUBLIC "-//W3C//DTD SVG 20010904//EN"
 "http://www.w3.org/TR/2001/REC-SVG-20010904/DTD/svg10.dtd">
<svg version="1.0" xmlns="http://www.w3.org/2000/svg"
 width="920.000000pt" height="512.000000pt" viewBox="0 0 920.000000 512.000000"
 preserveAspectRatio="xMidYMid meet">

<g transform="translate(0.000000,512.000000) scale(0.100000,-0.100000)"
fill="#000000" stroke="none">
<path d="M3670 5110 c-542 -67 -1020 -360 -1321 -809 -495 -741 -385 -1740
259 -2352 276 -263 592 -421 982 -491 48 -8 155 -13 295 -13 186 0 238 4 337
23 241 46 480 144 684 281 l102 68 176 -176 176 -176 -31 -31 c-42 -42 -51
-108 -21 -156 35 -55 1182 -1193 1232 -1221 115 -66 268 -73 385 -18 215 100
298 372 178 581 -28 50 -1166 1198 -1221 1232 -48 30 -114 21 -156 -21 l-31
-31 -176 176 -177 176 64 95 c209 308 314 651 314 1028 0 310 -60 566 -194
832 -263 524 -754 886 -1341 989 -100 18 -415 26 -515 14z m355 -250 c634 -60
1167 -485 1365 -1089 50 -151 70 -263 77 -432 19 -428 -138 -841 -435 -1151
-242 -252 -514 -401 -857 -471 -148 -29 -421 -31 -570 -3 -221 41 -462 142
-642 269 -107 76 -281 246 -355 347 -153 209 -248 432 -295 690 -23 130 -23
389 1 525 125 705 699 1240 1411 1314 116 12 177 12 300 1z"/>
<path d="M3849 4637 c-39 -26 -66 -89 -55 -130 3 -15 19 -41 34 -57 23 -26 44
-34 132 -54 590 -134 945 -511 979 -1039 9 -137 20 -165 76 -191 68 -32 137
-7 167 60 17 39 18 54 9 167 -18 211 -56 350 -141 517 -182 352 -543 613
-1005 726 -124 30 -153 30 -196 1z"/>
</g>
</svg>
