<?xml version="1.0" standalone="no"?>
<!DOCTYPE svg PUBLIC "-//W3C//DTD SVG 20010904//EN"
 "http://www.w3.org/TR/2001/REC-SVG-20010904/DTD/svg10.dtd">
<svg version="1.0" xmlns="http://www.w3.org/2000/svg"
 width="512.000000pt" height="512.000000pt" viewBox="0 0 512.000000 512.000000"
 preserveAspectRatio="xMidYMid meet">

<g transform="translate(0.000000,512.000000) scale(0.100000,-0.100000)"
fill="#000000" stroke="none">
<path d="M2142 5105 c-106 -33 -174 -113 -208 -242 -3 -10 -87 -13 -381 -13
-424 0 -463 -5 -590 -66 -96 -46 -223 -168 -271 -261 -36 -69 -72 -196 -72
-255 l0 -38 1940 0 1940 0 0 38 c0 60 -36 187 -72 255 -41 77 -148 191 -221
235 -31 18 -88 45 -129 60 l-73 27 -410 5 -409 5 -6 30 c-17 82 -90 172 -169
209 -44 20 -62 21 -436 23 -307 2 -399 -1 -433 -12z"/>
<path d="M912 2228 l3 -1823 22 -57 c66 -174 192 -288 368 -333 89 -23 2420
-23 2510 0 175 45 300 158 369 335 l21 55 3 1823 2 1822 -1650 0 -1650 0 2
-1822z m784 1327 c28 -16 49 -39 63 -68 l21 -43 0 -1407 c0 -1172 -2 -1413
-14 -1441 -31 -75 -133 -122 -208 -97 -40 13 -92 64 -107 104 -8 20 -11 468
-11 1440 l0 1412 23 40 c46 81 150 108 233 60z m962 -2 c43 -32 70 -80 77
-136 3 -29 5 -671 3 -1427 -3 -1366 -3 -1375 -24 -1410 -68 -117 -237 -115
-302 3 -16 30 -17 127 -20 1430 -1 948 1 1411 8 1437 13 48 54 98 95 116 42
20 129 13 163 -13z m947 4 c22 -13 49 -40 62 -62 l23 -40 0 -1414 c0 -1391 0
-1415 -20 -1455 -29 -61 -80 -91 -151 -91 -49 1 -64 5 -96 31 -79 64 -73 -71
-73 1508 0 1409 0 1410 21 1453 41 86 149 118 234 70z"/>
</g>
</svg>
